# xmcd
#
# Track frame offsets: 
#        150
#        14662
#        27675
#        41935
#        56373
#        70941
#        87931
#        104847
#        123590
#        143500
#        161886
#        180716
#        191707
#        217857
#        243287
#        259367
#        272375
#        285053
#        297970
#
# Disc length: 4292 seconds
#
# Revision: 0
# Processed by: cddbd v1.5.2PL0 Copyright (c) Steve Scherf et al.
# Submitted via: ExactAudioCopy v0.99pb5
#
DISCID=2210c213
DTITLE=John Lennon - Journals (Part 1) (Volume 2)
DYEAR=1994
DGENRE=Rock and Roll
TTITLE0=Imagine
TTITLE1=Imagine
TTITLE2=Imagine
TTITLE3=Imagine
TTITLE4=Imagine
TTITLE5=Crippled Inside
TTITLE6=Crippled Inside
TTITLE7=Jealous Guy
TTITLE8=Jealous Guy
TTITLE9=Jealous Guy
TTITLE10=Jealous Guy
TTITLE11=It's So Hard
TTITLE12=I Don't Want To Be A Soldier, I Don't Want To Die
TTITLE13=I Don't Want To Be A Soldier, I Don't Want To Die
TTITLE14=Give Me Some Truth
TTITLE15=Oh My Love
TTITLE16=Oh My Love
TTITLE17=Oh My Love
TTITLE18=How Do You Sleep
EXTD=
EXTT0=
EXTT1=
EXTT2=
EXTT3=
EXTT4=
EXTT5=
EXTT6=
EXTT7=
EXTT8=
EXTT9=
EXTT10=
EXTT11=
EXTT12=
EXTT13=
EXTT14=
EXTT15=
EXTT16=
EXTT17=
EXTT18=
PLAYORDER=
